<svg width="779" height="191" viewBox="0 0 779 191" fill="none" xmlns="http://www.w3.org/2000/svg">
<path d="M63.2479 190.518C51.3635 190.518 40.6186 188.511 31.0134 184.497C21.571 180.483 14.0822 174.702 8.54701 167.155C3.0118 159.608 0.1628 150.697 0 140.42H36.63C37.1184 147.324 39.5604 152.784 43.956 156.798C48.5145 160.813 54.7009 162.82 62.5153 162.82C70.4925 162.82 76.7603 160.973 81.3187 157.28C85.8771 153.426 88.1563 148.449 88.1563 142.347C88.1563 137.369 86.6097 133.274 83.5165 130.063C80.4233 126.852 76.5161 124.363 71.7949 122.596C67.2365 120.67 60.8873 118.582 52.7473 116.334C41.6768 113.123 32.6414 109.992 25.641 106.941C18.8034 103.729 12.8612 98.9924 7.81441 92.7301C2.9304 86.3073 0.4884 77.797 0.4884 67.1992C0.4884 57.2438 3.0118 48.5729 8.05861 41.1866C13.1054 33.8003 20.1872 28.1803 29.304 24.3266C38.4208 20.3123 48.8401 18.3052 60.5617 18.3052C78.1441 18.3052 92.3891 22.5603 103.297 31.0706C114.367 39.4203 120.472 51.1421 121.612 66.2358H84.0049C83.6793 60.4552 81.1559 55.7184 76.4347 52.0252C71.8763 48.1715 65.7713 46.2446 58.1197 46.2446C51.4449 46.2446 46.0725 47.9306 42.0024 51.3026C38.0952 54.6746 36.1416 59.5721 36.1416 65.9949C36.1416 70.491 37.6068 74.2644 40.5372 77.3152C43.6305 80.2055 47.3749 82.6141 51.7705 84.541C56.3289 86.3073 62.6781 88.3947 70.8181 90.8033C81.8885 94.0147 90.9239 97.2261 97.9243 100.438C104.925 103.649 110.948 108.466 115.995 114.889C121.042 121.312 123.565 129.742 123.565 140.179C123.565 149.171 121.205 157.521 116.484 165.228C111.762 172.936 104.843 179.118 95.7265 183.774C86.6097 188.27 75.7835 190.518 63.2479 190.518Z" fill="black"/>
<path d="M195.452 83.0958V147.646C195.452 152.142 196.51 155.433 198.626 157.521C200.906 159.448 204.65 160.411 209.86 160.411H225.733V188.832H204.243C175.427 188.832 161.02 175.023 161.02 147.405V83.0958H144.902V55.3972H161.02V22.3997H195.452V55.3972H225.733V83.0958H195.452Z" fill="black"/>
<path d="M286.953 76.111C291.348 69.0458 297.046 63.5061 304.047 59.4918C311.21 55.4775 319.35 53.4704 328.467 53.4704V88.8764H319.431C308.686 88.8764 300.546 91.3653 295.011 96.343C289.639 101.321 286.953 109.992 286.953 122.356V188.832H252.764V55.3972H286.953V76.111Z" fill="black"/>
<path d="M371.274 39.5006C365.251 39.5006 360.204 37.6541 356.134 33.9609C352.226 30.1072 350.273 25.3703 350.273 19.7503C350.273 14.1303 352.226 9.47372 356.134 5.78058C360.204 1.92686 365.251 0 371.274 0C377.298 0 382.263 1.92686 386.17 5.78058C390.24 9.47372 392.275 14.1303 392.275 19.7503C392.275 25.3703 390.24 30.1072 386.17 33.9609C382.263 37.6541 377.298 39.5006 371.274 39.5006ZM388.124 55.3972V188.832H353.936V55.3972H388.124Z" fill="black"/>
<path d="M415.553 121.633C415.553 108.145 418.239 96.1824 423.611 85.7453C429.146 75.3081 436.635 67.2795 446.078 61.6595C455.52 56.0395 466.021 53.2295 477.579 53.2295C486.371 53.2295 494.755 55.1564 502.732 59.0101C510.709 62.7032 517.058 67.681 521.78 73.9432V10.5977H556.456V188.832H521.78V169.082C517.547 175.665 511.605 180.964 503.953 184.979C496.301 188.993 487.429 191 477.335 191C465.939 191 455.52 188.11 446.078 182.329C436.635 176.549 429.146 168.44 423.611 158.003C418.239 147.405 415.553 135.282 415.553 121.633ZM522.024 122.115C522.024 113.926 520.396 106.941 517.14 101.16C513.884 95.219 509.488 90.723 503.953 87.6721C498.418 84.4607 492.476 82.855 486.126 82.855C479.777 82.855 473.916 84.3804 468.544 87.4313C463.172 90.4821 458.776 94.9781 455.357 100.919C452.101 106.7 450.473 113.604 450.473 121.633C450.473 129.662 452.101 136.727 455.357 142.828C458.776 148.77 463.172 153.346 468.544 156.557C474.079 159.769 479.94 161.374 486.126 161.374C492.476 161.374 498.418 159.849 503.953 156.798C509.488 153.587 513.884 149.091 517.14 143.31C520.396 137.369 522.024 130.304 522.024 122.115Z" fill="black"/>
<path d="M718.052 119.224C718.052 124.042 717.726 128.377 717.075 132.231H618.174C618.988 141.865 622.407 149.412 628.43 154.871C634.454 160.331 641.861 163.061 650.653 163.061C663.351 163.061 672.386 157.681 677.759 146.923H714.633C710.726 159.769 703.237 170.367 692.167 178.716C681.096 186.905 667.502 191 651.385 191C638.361 191 626.64 188.19 616.22 182.57C605.964 176.789 597.905 168.681 592.045 158.243C586.347 147.806 583.497 135.763 583.497 122.115C583.497 108.306 586.347 96.1824 592.045 85.7453C597.743 75.3081 605.72 67.2795 615.976 61.6595C626.233 56.0395 638.036 53.2295 651.385 53.2295C664.246 53.2295 675.724 55.9592 685.817 61.4187C696.074 66.8781 703.97 74.6658 709.505 84.7818C715.203 94.7373 718.052 106.218 718.052 119.224ZM682.643 109.59C682.48 100.919 679.305 94.0147 673.119 88.8764C666.933 83.5775 659.362 80.9281 650.408 80.9281C641.943 80.9281 634.78 83.4973 628.919 88.6356C623.221 93.6133 619.721 100.598 618.418 109.59H682.643Z" fill="black"/>
<circle cx="758.595" cy="171.179" r="19.8208" fill="#58C770"/>
</svg>
